<svg width="20" height="24" viewBox="0 0 20 24" fill="none" xmlns="http://www.w3.org/2000/svg">
<path fill-rule="evenodd" clip-rule="evenodd" d="M9.6 2.46154C5.65062 2.46154 2.56 5.37438 2.56 8.83916C2.56 9.58165 2.95546 10.7555 3.72531 12.2389C4.46998 13.6737 5.47566 15.2337 6.50029 16.6905C7.5218 18.1428 8.54574 19.4695 9.31559 20.4344C9.41488 20.5589 9.50987 20.6772 9.6 20.7889C9.69013 20.6772 9.78512 20.5589 9.88441 20.4344C10.6543 19.4695 11.6782 18.1428 12.6997 16.6905C13.7243 15.2337 14.73 13.6737 15.4747 12.2389C16.2445 10.7555 16.64 9.58165 16.64 8.83916C16.64 5.37438 13.5494 2.46154 9.6 2.46154ZM9.6 22.7692C8.61136 23.551 8.61125 23.5508 8.6111 23.5507L8.61064 23.5501L8.60917 23.5484L8.60397 23.5423L8.58473 23.5197L8.51226 23.434C8.44933 23.3594 8.35785 23.2503 8.24189 23.1106C8.01001 22.8311 7.67996 22.4285 7.28441 21.9327C6.49426 20.9423 5.4382 19.5744 4.37971 18.0694C3.32434 16.5689 2.25002 14.909 1.43469 13.338C0.644535 11.8155 0 10.1977 0 8.83916C0 3.89995 4.35936 0 9.6 0C14.8406 0 19.2 3.89995 19.2 8.83916C19.2 10.1977 18.5555 11.8155 17.7653 13.338C16.95 14.909 15.8757 16.5689 14.8203 18.0694C13.7618 19.5744 12.7057 20.9423 11.9156 21.9327C11.52 22.4285 11.19 22.8311 10.9581 23.1106C10.8421 23.2503 10.7507 23.3594 10.6877 23.434L10.6153 23.5197L10.596 23.5423L10.5908 23.5484L10.5894 23.5501L10.5889 23.5507C10.5888 23.5508 10.5886 23.551 9.6 22.7692ZM9.6 22.7692L10.5886 23.551C10.3455 23.8353 9.98279 24 9.6 24C9.21721 24 8.8545 23.8353 8.61136 23.551L9.6 22.7692ZM9.6 7.38462C8.53961 7.38462 7.68 8.21117 7.68 9.23077C7.68 10.2504 8.53961 11.0769 9.6 11.0769C10.6604 11.0769 11.52 10.2504 11.52 9.23077C11.52 8.21117 10.6604 7.38462 9.6 7.38462ZM5.12 9.23077C5.12 6.8517 7.12576 4.92308 9.6 4.92308C12.0742 4.92308 14.08 6.8517 14.08 9.23077C14.08 11.6098 12.0742 13.5385 9.6 13.5385C7.12576 13.5385 5.12 11.6098 5.12 9.23077Z" fill="#392A93"/>
</svg>
