<svg width="26" height="26" viewBox="0 0 26 26" fill="none" xmlns="http://www.w3.org/2000/svg">
<path fill-rule="evenodd" clip-rule="evenodd" d="M11.2837 2.6C6.51819 2.6 2.65499 6.38319 2.65499 11.05C2.65499 15.7168 6.51819 19.5 11.2837 19.5C16.0492 19.5 19.9124 15.7168 19.9124 11.05C19.9124 6.38319 16.0492 2.6 11.2837 2.6ZM0 11.05C0 4.94725 5.05188 0 11.2837 0C17.5155 0 22.5674 4.94725 22.5674 11.05C22.5674 13.7704 21.5635 16.2613 19.8987 18.1866L25.6112 23.7808C26.1296 24.2884 26.1296 25.1116 25.6112 25.6192C25.0928 26.1269 24.2522 26.1269 23.7338 25.6192L17.9566 19.9616C16.0876 21.3059 13.7804 22.1 11.2837 22.1C5.05188 22.1 0 17.1527 0 11.05Z" fill="#9086CC"/>
</svg>
