<svg width="20" height="21" viewBox="0 0 20 21" fill="none" xmlns="http://www.w3.org/2000/svg">
<path fill-rule="evenodd" clip-rule="evenodd" d="M10.9985 0.632821C11.1584 1.03777 11.0379 1.49961 10.7006 1.77484C9.06262 3.11126 8.01952 5.14253 8.01952 7.41822C8.01952 11.4384 11.2785 14.6974 15.2987 14.6974C16.2984 14.6974 17.2486 14.4965 18.113 14.1337C18.515 13.9651 18.9799 14.0762 19.2621 14.4084C19.5443 14.7407 19.5788 15.2175 19.3473 15.5868C17.5458 18.4618 14.3466 20.377 10.6992 20.377C5.06637 20.377 0.500061 15.8107 0.500061 10.1779C0.500061 4.77969 4.69324 0.361738 10.0008 0.00230078C10.4352 -0.0271149 10.8387 0.227874 10.9985 0.632821ZM7.29832 2.71495C4.46763 4.00708 2.50006 6.86294 2.50006 10.1779C2.50006 14.7061 6.17094 18.377 10.6992 18.377C12.5733 18.377 14.3008 17.7486 15.6824 16.6896C15.5551 16.6948 15.4272 16.6974 15.2987 16.6974C10.174 16.6974 6.01952 12.543 6.01952 7.41822C6.01952 5.70172 6.486 4.0939 7.29832 2.71495Z" fill="#9086CC"/>
</svg>
