<svg width="20" height="21" viewBox="0 0 20 21" fill="none" xmlns="http://www.w3.org/2000/svg">
<path fill-rule="evenodd" clip-rule="evenodd" d="M10.9985 0.632821C11.1583 1.03777 11.0378 1.49961 10.7005 1.77484C9.06256 3.11126 8.01946 5.14253 8.01946 7.41822C8.01946 11.4384 11.2785 14.6974 15.2987 14.6974C16.2983 14.6974 17.2485 14.4965 18.113 14.1337C18.5149 13.9651 18.9798 14.0762 19.2621 14.4084C19.5443 14.7407 19.5788 15.2175 19.3473 15.5868C17.5457 18.4618 14.3465 20.377 10.6991 20.377C5.06631 20.377 0.5 15.8107 0.5 10.1779C0.5 4.77969 4.69317 0.361738 10.0008 0.00230078C10.4351 -0.0271149 10.8386 0.227874 10.9985 0.632821ZM7.29825 2.71495C4.46757 4.00708 2.5 6.86294 2.5 10.1779C2.5 14.7061 6.17088 18.377 10.6991 18.377C12.5732 18.377 14.3008 17.7486 15.6823 16.6896C15.5551 16.6948 15.4272 16.6974 15.2987 16.6974C10.1739 16.6974 6.01946 12.543 6.01946 7.41822C6.01946 5.70172 6.48594 4.0939 7.29825 2.71495Z" fill="#392A93"/>
</svg>
