<svg width="20" height="20" viewBox="0 0 20 20" fill="none" xmlns="http://www.w3.org/2000/svg">
<path d="M4.71199 0.41723L1.88176 0.579689C1.18831 0.619493 0.641921 1.19949 0.659597 1.89386C1.06616 17.8651 11.9024 20.304 18.2907 19.4307C18.9227 19.3443 19.3598 18.7793 19.3404 18.1417L19.2687 15.7774C19.2523 15.2361 18.9065 14.7599 18.3968 14.5768L14.4137 13.1463C13.8295 12.9365 13.1782 13.1626 12.8497 13.6892L11.7181 15.5032C11.4169 15.986 10.8355 16.2287 10.2959 16.0479C5.84744 14.5573 4.62578 10.9128 4.54974 8.78519C4.5376 8.44528 4.69467 8.12802 4.94457 7.89729L6.5206 6.44217C6.86615 6.12313 7.01554 5.64415 6.91261 5.18524L6.07371 1.44474C5.9325 0.815098 5.35621 0.38025 4.71199 0.41723Z" fill="#392A93"/>
</svg>
