<svg width="23" height="22" viewBox="0 0 23 22" fill="none" xmlns="http://www.w3.org/2000/svg">
<path fill-rule="evenodd" clip-rule="evenodd" d="M11.5 0C12.0523 0 12.5 0.447715 12.5 1V3C12.5 3.55228 12.0523 4 11.5 4C10.9477 4 10.5 3.55228 10.5 3V1C10.5 0.447715 10.9477 0 11.5 0ZM4.0147 2.92897C4.40522 2.53845 5.03839 2.53845 5.42891 2.92897L6.84313 4.34319C7.23365 4.73371 7.23365 5.36688 6.84312 5.7574C6.4526 6.14792 5.81944 6.14792 5.42891 5.7574L4.0147 4.34319C3.62417 3.95266 3.62417 3.3195 4.0147 2.92897ZM19.5711 3.51476C19.9616 3.90528 19.9616 4.53845 19.5711 4.92897L18.1569 6.34319C17.7663 6.73371 17.1332 6.73371 16.7427 6.34319C16.3521 5.95266 16.3521 5.3195 16.7427 4.92897L18.1569 3.51476C18.5474 3.12423 19.1806 3.12423 19.5711 3.51476ZM11.5 7C9.29086 7 7.5 8.79086 7.5 11C7.5 13.2091 9.29086 15 11.5 15C13.7091 15 15.5 13.2091 15.5 11C15.5 8.79086 13.7091 7 11.5 7ZM5.5 11C5.5 7.68629 8.18629 5 11.5 5C14.8137 5 17.5 7.68629 17.5 11C17.5 14.3137 14.8137 17 11.5 17C8.18629 17 5.5 14.3137 5.5 11ZM0.5 11C0.5 10.4477 0.947715 10 1.5 10H3.5C4.05228 10 4.5 10.4477 4.5 11C4.5 11.5523 4.05228 12 3.5 12H1.5C0.947715 12 0.5 11.5523 0.5 11ZM18.5 11C18.5 10.4477 18.9477 10 19.5 10H21.5C22.0523 10 22.5 10.4477 22.5 11C22.5 11.5523 22.0523 12 21.5 12H19.5C18.9477 12 18.5 11.5523 18.5 11ZM16.7427 15.6569C17.1332 15.2664 17.7664 15.2664 18.1569 15.6569L19.5711 17.0711C19.9616 17.4616 19.9616 18.0948 19.5711 18.4853C19.1806 18.8758 18.5474 18.8758 18.1569 18.4853L16.7427 17.0711C16.3521 16.6806 16.3521 16.0474 16.7427 15.6569ZM6.84312 16.2427C7.23365 16.6332 7.23365 17.2664 6.84312 17.6569L5.42891 19.0711C5.03838 19.4616 4.40522 19.4616 4.0147 19.0711C3.62417 18.6806 3.62417 18.0474 4.01469 17.6569L5.42891 16.2427C5.81943 15.8521 6.4526 15.8521 6.84312 16.2427ZM11.5 18C12.0523 18 12.5 18.4477 12.5 19V21C12.5 21.5523 12.0523 22 11.5 22C10.9477 22 10.5 21.5523 10.5 21V19C10.5 18.4477 10.9477 18 11.5 18Z" fill="#392A93"/>
</svg>
