<svg width="23" height="22" viewBox="0 0 23 22" fill="none" xmlns="http://www.w3.org/2000/svg">
<path fill-rule="evenodd" clip-rule="evenodd" d="M11.5 0C12.0523 0 12.5 0.447715 12.5 1V3C12.5 3.55228 12.0523 4 11.5 4C10.9478 4 10.5 3.55228 10.5 3V1C10.5 0.447715 10.9478 0 11.5 0ZM4.01474 2.92897C4.40527 2.53845 5.03843 2.53845 5.42896 2.92897L6.84317 4.34319C7.2337 4.73371 7.2337 5.36688 6.84317 5.7574C6.45265 6.14792 5.81948 6.14792 5.42896 5.7574L4.01474 4.34319C3.62422 3.95266 3.62422 3.3195 4.01474 2.92897ZM19.5711 3.51476C19.9617 3.90528 19.9617 4.53845 19.5711 4.92897L18.1569 6.34319C17.7664 6.73371 17.1332 6.73371 16.7427 6.34319C16.3522 5.95266 16.3522 5.3195 16.7427 4.92897L18.1569 3.51476C18.5474 3.12423 19.1806 3.12423 19.5711 3.51476ZM11.5 7C9.29091 7 7.50005 8.79086 7.50005 11C7.50005 13.2091 9.29091 15 11.5 15C13.7092 15 15.5 13.2091 15.5 11C15.5 8.79086 13.7092 7 11.5 7ZM5.50005 11C5.50005 7.68629 8.18634 5 11.5 5C14.8138 5 17.5 7.68629 17.5 11C17.5 14.3137 14.8138 17 11.5 17C8.18634 17 5.50005 14.3137 5.50005 11ZM0.500046 11C0.500046 10.4477 0.947761 10 1.50005 10H3.50005C4.05233 10 4.50005 10.4477 4.50005 11C4.50005 11.5523 4.05233 12 3.50005 12H1.50005C0.947761 12 0.500046 11.5523 0.500046 11ZM18.5 11C18.5 10.4477 18.9478 10 19.5 10H21.5C22.0523 10 22.5 10.4477 22.5 11C22.5 11.5523 22.0523 12 21.5 12H19.5C18.9478 12 18.5 11.5523 18.5 11ZM16.7427 15.6569C17.1332 15.2664 17.7664 15.2664 18.1569 15.6569L19.5711 17.0711C19.9617 17.4616 19.9617 18.0948 19.5711 18.4853C19.1806 18.8758 18.5474 18.8758 18.1569 18.4853L16.7427 17.0711C16.3522 16.6806 16.3522 16.0474 16.7427 15.6569ZM6.84317 16.2427C7.23369 16.6332 7.23369 17.2664 6.84317 17.6569L5.42895 19.0711C5.03843 19.4616 4.40527 19.4616 4.01474 19.0711C3.62422 18.6806 3.62422 18.0474 4.01474 17.6569L5.42895 16.2427C5.81948 15.8521 6.45264 15.8521 6.84317 16.2427ZM11.5 18C12.0523 18 12.5 18.4477 12.5 19V21C12.5 21.5523 12.0523 22 11.5 22C10.9478 22 10.5 21.5523 10.5 21V19C10.5 18.4477 10.9478 18 11.5 18Z" fill="#9086CC"/>
</svg>
