<svg width="280" height="186" viewBox="0 0 280 186" fill="none" xmlns="http://www.w3.org/2000/svg">
<path d="M72.9005 0.267236C72.0301 -0.170091 71.0453 -0.0426262 70.0289 0.445958C63.5015 3.58343 58.9078 10.0539 52.1897 12.7542C46.3375 15.1065 42.2079 21.0591 39.8008 26.0634C38.1259 29.5454 38.6576 34.2338 35.824 36.851C35.2439 37.3869 34.4988 37.7281 33.55 37.7281C29.4079 37.7281 8.69715 73.1079 4.555 85.5948C0.41285 98.0818 2.48396 91.8383 0.412889 108.488C0.00575459 111.761 -0.0762377 114.598 0.0624326 117.037C0.557965 125.751 6.19612 133.697 9.24617 141.87L10.7683 145.949C11.4586 147.336 14.9104 151.36 23.1947 156.354C26.862 158.565 30.1234 161.402 32.7993 164.178C37.9127 169.482 38.0365 182.118 44.6336 185.372C49.563 187.803 51.6049 182.761 50.608 177.335C50.4796 176.636 50.3181 175.886 50.1187 175.085C48.767 169.652 50.0801 162.003 51.3594 157.109C51.8574 155.204 52.6274 153.38 53.5253 151.629C65.2089 128.849 72.9756 122.905 74.9716 118.893C75.7897 117.249 76.0195 108.384 76.3688 106.58C76.7768 104.473 77.0426 101.698 77.0426 98.0818C77.0426 91.9819 78.1773 85.616 79.5559 80.2372C81.3985 73.0482 79.18 62.6577 85.3269 58.5398C88.0808 56.6949 90.5379 52.2097 92.4167 47.6323C94.8748 41.6433 92.3522 35.1979 89.4691 29.4035C87.8122 26.0736 92.9209 18.304 95.6823 14.8354C97.063 13.4479 97.7534 10.2568 89.4691 8.59188C79.1137 6.5107 77.0426 2.3484 72.9005 0.267236Z" fill="#392A93"/>
<path d="M175.083 140.988H164.317V131.837H157.931V140.988H147.016V133.846H140.705V146.419H175.083V148.577H181.32V133.697H175.083V140.988ZM185.998 93.4466V97.9106H153.922V93.4466H185.998ZM153.922 106.764V102.449H185.998V106.764H153.922ZM203.967 121.57V116.287H153.922V111.749H192.903V88.4618H171.222C172.187 86.825 173.227 85.0394 173.969 83.1794L165.876 82.4354C165.505 84.1466 164.762 86.453 164.02 88.4618H147.091V130.795H194.24C193.423 139.649 192.532 143.295 191.418 144.411C190.899 145.006 190.23 145.229 189.117 145.229C188.003 145.229 185.404 145.155 182.583 144.857C183.474 146.494 184.068 149.023 184.216 150.809C187.632 150.958 190.676 150.958 192.384 150.735C194.314 150.586 195.799 150.065 197.061 148.577C198.992 146.568 200.106 141.137 201.145 128.191C201.294 127.373 201.368 125.587 201.368 125.587H153.922V121.57H203.967Z" fill="#392A93"/>
<path d="M235.598 105.574C235.598 114.055 234.855 126.183 228.247 134.962C229.583 135.78 231.588 137.64 232.553 138.756C238.79 130.87 240.572 120.156 241.018 111.154H247.032C246.438 126.778 245.844 132.507 244.73 133.846C244.285 134.664 243.691 134.813 242.874 134.813C241.983 134.813 240.275 134.813 238.271 134.59C239.013 136.152 239.607 138.533 239.681 140.244C242.132 140.319 244.359 140.319 245.77 140.095C247.552 139.872 248.666 139.277 249.854 137.715C251.562 135.408 252.23 128.266 253.047 108.029V105.425H241.092V98.2826H253.418C252.75 99.2498 252.156 100.143 251.487 100.961C252.898 101.854 255.274 103.639 256.314 104.681L256.908 103.863V106.987H268.714C267.154 108.773 265.298 110.559 263.664 111.749V116.511H254.457V122.016H263.664V133.325C263.664 134.069 263.442 134.292 262.551 134.292C261.734 134.292 258.987 134.292 256.017 134.218C256.908 135.855 257.799 138.31 258.096 139.947C262.254 139.947 265.075 139.872 267.08 138.905C269.085 138.012 269.53 136.227 269.53 133.399V122.016H278.886V116.511H269.53V113.311C272.575 110.707 275.693 107.434 278.143 104.309L274.357 101.482L273.243 101.779H258.244C259.284 100.068 260.175 98.2826 261.066 96.3482H278.96V90.6194H263.442C264.258 88.4618 265.075 86.1554 265.595 83.9234L259.803 82.2866C258.541 87.7178 256.462 93.149 253.938 97.3898V92.4794H246.438L246.81 92.405C246.141 89.801 244.582 85.7834 243.171 82.733L237.157 83.849C238.271 86.5274 239.459 89.9498 240.127 92.4794H229.509V98.2826H235.598V105.574ZM227.43 94.1906C225.648 91.1402 222.084 86.3786 219.04 82.8074L213.694 85.6346C216.589 89.2802 220.153 94.4882 221.861 97.613L227.43 94.1906ZM226.91 117.775L225.871 117.924H219.931C223.792 112.865 228.692 105.425 231.514 101.184L226.985 99.3242L226.019 99.7706H211.615V105.351H222.084C219.262 109.666 215.698 114.799 214.288 116.287C213.025 117.701 211.912 118.222 210.724 118.519C211.392 119.784 212.654 122.909 213.025 124.471C213.694 123.876 215.624 123.355 217.48 123.355H223.049C220.97 134.143 216.515 142.03 210.204 146.419C211.54 147.387 213.842 149.693 214.733 151.181C218.223 148.428 221.267 144.783 223.718 139.947C229.509 148.279 238.493 149.767 252.972 149.767C261.288 149.767 270.57 149.544 277.772 149.098C278.143 147.312 278.96 144.187 280 142.699C272.129 143.443 260.843 143.815 253.047 143.815C239.681 143.815 230.771 142.625 226.242 134.218C227.876 129.754 229.138 124.695 229.955 118.966L226.91 117.775Z" fill="#392A93"/>
<path d="M144.749 35.7787H137.498V32.0959H156.209V35.7787H148.959V55.7998H144.749V35.7787Z" fill="#9086CC"/>
<path d="M165.52 53.7575H165.42C165.019 54.4717 164.373 55.0632 163.482 55.5319C162.591 55.9783 161.577 56.2015 160.441 56.2015C159.795 56.2015 159.116 56.1123 158.403 55.9337C157.712 55.7775 157.067 55.5096 156.465 55.1302C155.886 54.7284 155.396 54.2151 154.995 53.5901C154.616 52.9428 154.427 52.1505 154.427 51.213C154.427 50.0077 154.761 49.048 155.429 48.3337C156.12 47.6195 157 47.0727 158.069 46.6932C159.138 46.3138 160.319 46.0683 161.611 45.9567C162.925 45.8227 164.206 45.7558 165.453 45.7558V45.354C165.453 44.3496 165.086 43.6131 164.351 43.1443C163.638 42.6533 162.78 42.4078 161.778 42.4078C160.931 42.4078 160.118 42.5863 159.339 42.9435C158.559 43.3006 157.913 43.7358 157.401 44.2492L155.329 41.8051C156.242 40.957 157.289 40.3209 158.47 39.8968C159.673 39.4727 160.887 39.2607 162.112 39.2607C163.537 39.2607 164.707 39.4615 165.62 39.8633C166.556 40.2651 167.291 40.7896 167.825 41.4369C168.36 42.0841 168.728 42.8095 168.928 43.6131C169.151 44.4166 169.262 45.2201 169.262 46.0236V55.7998H165.52V53.7575ZM165.453 48.4677H164.551C163.905 48.4677 163.226 48.5011 162.513 48.5681C161.8 48.6127 161.143 48.7355 160.541 48.9364C159.94 49.1149 159.439 49.3828 159.038 49.7399C158.637 50.0747 158.436 50.5434 158.436 51.1461C158.436 51.5255 158.514 51.8491 158.67 52.117C158.849 52.3625 159.071 52.5634 159.339 52.7196C159.606 52.8759 159.907 52.9875 160.241 53.0544C160.575 53.1214 160.909 53.1549 161.243 53.1549C162.624 53.1549 163.671 52.7866 164.384 52.05C165.097 51.3135 165.453 50.3091 165.453 49.0368V48.4677Z" fill="#9086CC"/>
<path d="M174 39.7294H178.01V55.7998H174V39.7294ZM173.432 34.2721C173.432 33.6249 173.666 33.0669 174.134 32.5981C174.624 32.1071 175.237 31.8616 175.972 31.8616C176.707 31.8616 177.319 32.0959 177.809 32.5647C178.322 33.0111 178.578 33.5802 178.578 34.2721C178.578 34.9641 178.322 35.5444 177.809 36.0131C177.319 36.4595 176.707 36.6827 175.972 36.6827C175.237 36.6827 174.624 36.4483 174.134 35.9796C173.666 35.4886 173.432 34.9194 173.432 34.2721Z" fill="#9086CC"/>
<path d="M180.602 39.7294H184.946L188.287 51.2465H188.354L191.795 39.7294H196.072L199.547 51.2465H199.614L203.022 39.7294H207.199L201.652 55.7998H197.576L193.934 44.5505H193.867L190.258 55.7998H186.182L180.602 39.7294Z" fill="#9086CC"/>
<path d="M219.685 53.7575H219.585C219.184 54.4717 218.538 55.0632 217.647 55.5319C216.756 55.9783 215.743 56.2015 214.607 56.2015C213.961 56.2015 213.281 56.1123 212.568 55.9337C211.878 55.7775 211.232 55.5096 210.63 55.1302C210.051 54.7284 209.561 54.2151 209.16 53.5901C208.782 52.9428 208.592 52.1505 208.592 51.213C208.592 50.0077 208.926 49.048 209.595 48.3337C210.285 47.6195 211.165 47.0727 212.234 46.6932C213.304 46.3138 214.484 46.0683 215.776 45.9567C217.09 45.8227 218.371 45.7558 219.619 45.7558V45.354C219.619 44.3496 219.251 43.6131 218.516 43.1443C217.803 42.6533 216.946 42.4078 215.943 42.4078C215.097 42.4078 214.284 42.5863 213.504 42.9435C212.724 43.3006 212.078 43.7358 211.566 44.2492L209.494 41.8051C210.408 40.957 211.455 40.3209 212.635 39.8968C213.838 39.4727 215.052 39.2607 216.277 39.2607C217.703 39.2607 218.872 39.4615 219.786 39.8633C220.721 40.2651 221.456 40.7896 221.991 41.4369C222.525 42.0841 222.893 42.8095 223.093 43.6131C223.316 44.4166 223.428 45.2201 223.428 46.0236V55.7998H219.685V53.7575ZM219.619 48.4677H218.716C218.07 48.4677 217.391 48.5011 216.678 48.5681C215.965 48.6127 215.308 48.7355 214.707 48.9364C214.105 49.1149 213.604 49.3828 213.203 49.7399C212.802 50.0747 212.602 50.5434 212.602 51.1461C212.602 51.5255 212.68 51.8491 212.836 52.117C213.014 52.3625 213.237 52.5634 213.504 52.7196C213.771 52.8759 214.072 52.9875 214.406 53.0544C214.74 53.1214 215.074 53.1549 215.409 53.1549C216.79 53.1549 217.837 52.7866 218.549 52.05C219.262 51.3135 219.619 50.3091 219.619 49.0368V48.4677Z" fill="#9086CC"/>
<path d="M228.099 39.7294H231.908V42.3073H231.975C232.331 41.5038 232.944 40.8007 233.812 40.1981C234.703 39.5731 235.75 39.2607 236.953 39.2607C238 39.2607 238.891 39.4504 239.626 39.8298C240.384 40.1869 240.996 40.6668 241.464 41.2695C241.954 41.8721 242.31 42.564 242.533 43.3452C242.756 44.1264 242.867 44.9299 242.867 45.7558V55.7998H238.858V46.8941C238.858 46.4254 238.824 45.9343 238.758 45.421C238.691 44.9076 238.546 44.4501 238.323 44.0483C238.1 43.6242 237.789 43.2783 237.388 43.0104C237.009 42.7426 236.497 42.6087 235.851 42.6087C235.205 42.6087 234.648 42.7426 234.18 43.0104C233.712 43.2559 233.322 43.5796 233.011 43.9813C232.721 44.3831 232.498 44.8518 232.342 45.3875C232.186 45.9009 232.108 46.4254 232.108 46.9611V55.7998H228.099V39.7294Z" fill="#9086CC"/>
</svg>
