<svg width="20" height="20" viewBox="0 0 20 20" fill="none" xmlns="http://www.w3.org/2000/svg">
<path fill-rule="evenodd" clip-rule="evenodd" d="M2.06189 9H6.02704C6.16368 6.48347 6.81241 4.15607 7.84474 2.29368C4.78431 3.1478 2.46392 5.77602 2.06189 9ZM9.99055 2.61029C8.92813 4.21065 8.18551 6.44463 8.03021 9H11.968C11.8081 6.44133 11.0591 4.20668 9.99055 2.61029ZM11.9715 11H8.03021C8.18643 13.5705 8.93693 15.8158 10.0094 17.418C11.0758 15.8118 11.82 13.5672 11.9715 11ZM7.84474 17.7063C6.81241 15.8439 6.16368 13.5165 6.02704 11H2.06189C2.46392 14.224 4.78431 16.8522 7.84474 17.7063ZM12.1738 17.7011C13.1992 15.8374 13.842 13.5123 13.9745 11H17.9381C17.5369 14.2175 15.225 16.8416 12.1738 17.7011ZM17.9381 9H13.9714C13.8306 6.47922 13.1759 4.14947 12.1366 2.2885C15.2063 3.13713 17.5353 5.76948 17.9381 9ZM0 10C0 4.47715 4.47715 0 10 0C15.5228 0 20 4.47715 20 10C20 15.5228 15.5228 20 10 20C4.47715 20 0 15.5228 0 10Z" fill="#392A93"/>
</svg>
